<svg width="135" height="84" viewBox="0 0 135 84" fill="none" xmlns="http://www.w3.org/2000/svg">
<path d="M68.2572 11.2062L65.2593 28.308H83.3183L82.4617 33.3169H64.4028L61.2621 50.848H81.5338L80.6059 56H53.8386L62.6897 6.0542H89.3855L88.4576 11.2062H68.2572ZM129.836 6.12575L128.908 11.2062H115.346L107.494 56H100.999L108.85 11.2062H95.2883L96.2162 6.12575H129.836Z" fill="#FE0390"/>
<path d="M43.1845 19.8022C41.8045 16.8923 39.8059 14.6502 37.1886 13.076C34.5714 11.4541 31.5259 10.6431 28.0521 10.6431C24.5783 10.6431 21.4376 11.4541 18.63 13.076C15.8701 14.6502 13.681 16.94 12.0631 19.9454C10.4928 22.903 9.70761 26.3377 9.70761 30.2494C9.70761 34.161 10.4928 37.5957 12.0631 40.5534C13.681 43.511 15.8701 45.8008 18.63 47.4227C21.4376 48.9969 24.5783 49.784 28.0521 49.784C32.9059 49.784 36.9031 48.329 40.0438 45.4191C43.1845 42.5092 45.0165 38.5737 45.54 33.6125H25.6966V28.3174H52.4638V33.3262C52.0831 37.4288 50.7983 41.1974 48.6093 44.632C46.4204 48.019 43.5414 50.7142 39.9724 52.7178C36.4035 54.6737 32.43 55.6516 28.0521 55.6516C23.4363 55.6516 19.2249 54.5782 15.418 52.4316C11.611 50.2372 8.58936 47.208 6.35278 43.344C4.16382 39.48 3.06934 35.1151 3.06934 30.2494C3.06934 25.3836 4.16382 21.0187 6.35278 17.1547C8.58936 13.243 11.611 10.2138 15.418 8.06713C19.2249 5.87275 23.4363 4.77557 28.0521 4.77557C33.3342 4.77557 37.9976 6.08742 42.0424 8.71113C46.1349 11.3348 49.109 15.0319 50.9649 19.8022H43.1845Z" fill="#FE7906"/>
<path d="M30.4232 81.3602L30.5956 55.2594L25 55.2223L24.8276 81.3231L30.4232 81.3602Z" fill="#FE7906"/>
</svg>
