<svg width="46" height="46" viewBox="0 0 46 46" fill="none" xmlns="http://www.w3.org/2000/svg">
<path d="M7.66665 42.1666C6.61248 42.1666 5.71037 41.7916 4.96031 41.0416C4.21026 40.2915 3.83459 39.3888 3.83331 38.3333V15.3333C3.83331 14.2791 4.20898 13.377 4.96031 12.627C5.71165 11.8769 6.61376 11.5013 7.66665 11.5H15.3333L21.6583 5.17498C22.0416 4.79164 22.4889 4.59998 23 4.59998C23.5111 4.59998 23.9583 4.79164 24.3416 5.17498L30.6666 11.5H38.3333C39.3875 11.5 40.2902 11.8756 41.0416 12.627C41.7929 13.3783 42.1679 14.2804 42.1666 15.3333V38.3333C42.1666 39.3875 41.7916 40.2902 41.0416 41.0416C40.2915 41.7929 39.3888 42.1679 38.3333 42.1666H7.66665ZM7.66665 38.3333H38.3333V15.3333H7.66665V38.3333ZM21.5625 32.5833L18.0166 27.8396C17.825 27.584 17.5694 27.4562 17.25 27.4562C16.9305 27.4562 16.675 27.584 16.4833 27.8396L12.65 32.9666C12.3944 33.2861 12.3625 33.6215 12.5541 33.9729C12.7458 34.3243 13.0333 34.5 13.4166 34.5H32.5833C32.9666 34.5 33.2541 34.3243 33.4458 33.9729C33.6375 33.6215 33.6055 33.2861 33.35 32.9666L28.0791 25.9229C27.8875 25.6673 27.6319 25.5396 27.3125 25.5396C26.993 25.5396 26.7375 25.6673 26.5458 25.9229L21.5625 32.5833ZM35.5791 24.0791C36.1375 23.5194 36.4166 22.8403 36.4166 22.0416C36.4166 21.243 36.1375 20.5645 35.5791 20.0061C35.0207 19.4478 34.3415 19.1679 33.5416 19.1666C32.7418 19.1654 32.0633 19.4452 31.5061 20.0061C30.949 20.5671 30.6692 21.2456 30.6666 22.0416C30.6641 22.8377 30.9439 23.5168 31.5061 24.0791C32.0684 24.6413 32.7469 24.9205 33.5416 24.9166C34.3364 24.9128 35.0156 24.6336 35.5791 24.0791ZM19.3583 11.5H26.6416L23 7.85831L19.3583 11.5Z" fill="#FE7906"/>
</svg>
