<svg width="46" height="46" viewBox="0 0 46 46" fill="none" xmlns="http://www.w3.org/2000/svg">
<path d="M18.6875 6.10942H10.0625C9.39531 6.10942 8.75546 6.37446 8.28368 6.84623C7.81191 7.318 7.54688 7.95786 7.54688 8.62504V37.375C7.54688 38.0422 7.81191 38.6821 8.28368 39.1539C8.75546 39.6256 9.39531 39.8907 10.0625 39.8907H18.6875C19.0179 39.8907 19.345 39.8256 19.6502 39.6992C19.9554 39.5728 20.2327 39.3875 20.4663 39.1539C20.6999 38.9203 20.8852 38.6429 21.0116 38.3377C21.1381 38.0325 21.2031 37.7054 21.2031 37.375V8.62504C21.2031 8.29469 21.1381 7.96757 21.0116 7.66236C20.8852 7.35715 20.6999 7.07983 20.4663 6.84623C20.2327 6.61263 19.9554 6.42733 19.6502 6.30091C19.345 6.17449 19.0179 6.10942 18.6875 6.10942ZM9.70312 14.0157H19.0469V31.9844H9.70312V14.0157ZM10.0625 8.26567H18.6875C18.7828 8.26567 18.8742 8.30353 18.9416 8.37093C19.009 8.43832 19.0469 8.52973 19.0469 8.62504V11.8594H9.70312V8.62504C9.70312 8.52973 9.74099 8.43832 9.80838 8.37093C9.87578 8.30353 9.96719 8.26567 10.0625 8.26567ZM18.6875 37.7344H10.0625C9.96719 37.7344 9.87578 37.6966 9.80838 37.6292C9.74099 37.5618 9.70312 37.4704 9.70312 37.375V34.1407H19.0469V37.375C19.0469 37.4704 19.009 37.5618 18.9416 37.6292C18.8742 37.6966 18.7828 37.7344 18.6875 37.7344ZM41.2742 35.0391L35.3104 6.67723C35.2431 6.35255 35.1123 6.04437 34.9254 5.77043C34.7386 5.49649 34.4994 5.26219 34.2217 5.081C33.944 4.89982 33.6332 4.77532 33.3072 4.71467C32.9812 4.65403 32.6465 4.65843 32.3222 4.72762L23.911 6.53528C23.2601 6.67837 22.6918 7.07237 22.3295 7.63179C21.9672 8.19122 21.8401 8.87094 21.9758 9.52348L27.9396 37.88C28.0074 38.2058 28.1393 38.5149 28.3274 38.7894C28.5156 39.0639 28.7563 39.2984 29.0357 39.4792C29.4401 39.7437 29.9127 39.8848 30.3959 39.8853C30.5772 39.8862 30.758 39.8669 30.935 39.8278L39.3462 38.0219C39.9947 37.8772 40.5603 37.4833 40.921 36.9253C41.2817 36.3673 41.4085 35.6898 41.2742 35.0391ZM26.3943 20.0675L35.5098 18.1089L38.047 30.1768L28.9297 32.13L26.3943 20.0675ZM25.203 14.3966L34.3203 12.4326L35.066 15.9922L25.9505 17.9508L25.203 14.3966ZM24.3656 8.64661L32.775 6.84075C32.8001 6.8381 32.8254 6.8381 32.8505 6.84075C32.9176 6.84093 32.9833 6.86094 33.0391 6.89825C33.0804 6.92453 33.1159 6.95896 33.1434 6.99944C33.1709 7.03992 33.1898 7.08558 33.1991 7.13364L33.8729 10.3357L24.7591 12.2799L24.0871 9.08504C24.0661 8.98955 24.0836 8.88962 24.1357 8.8069C24.1878 8.72417 24.2704 8.6653 24.3656 8.64301V8.64661ZM38.8862 35.9232L30.475 37.7344C30.43 37.7444 30.3834 37.7453 30.338 37.7369C30.2926 37.7286 30.2494 37.7112 30.2109 37.6859C30.1696 37.6596 30.1341 37.6252 30.1066 37.5847C30.0791 37.5442 30.0602 37.4986 30.0509 37.4505L29.3771 34.2485L38.4909 32.2899L39.1719 35.4757C39.1824 35.5237 39.1834 35.5732 39.1747 35.6215C39.1661 35.6698 39.1479 35.7159 39.1214 35.7571C39.0948 35.7984 39.0604 35.834 39.02 35.8618C38.9796 35.8897 38.9342 35.9093 38.8862 35.9196V35.9232Z" fill="#FE7906"/>
</svg>
