<svg width="46" height="46" viewBox="0 0 46 46" fill="none" xmlns="http://www.w3.org/2000/svg">
<path d="M39.8091 17.5567L37.1833 9.69837C36.8034 8.55114 36.0705 7.55337 35.0894 6.84768C34.1084 6.142 32.9293 5.76452 31.7208 5.76921H14.26C13.0522 5.76744 11.8745 6.14605 10.894 6.85133C9.91347 7.5566 9.17995 8.55272 8.79748 9.69837L6.17165 17.5567C4.79165 18.1317 3.81415 19.5117 3.81415 21.0834V30.6667C3.81819 31.3357 3.99722 31.9919 4.33347 32.5703C4.66971 33.1486 5.15145 33.6289 5.73081 33.9634V38.3334C5.73081 39.3875 6.59331 40.25 7.64748 40.25H9.56415C10.6183 40.25 11.4808 39.3875 11.4808 38.3334V34.5H34.4808V38.3334C34.4808 39.3875 35.3433 40.25 36.3975 40.25H38.3141C39.3683 40.25 40.2308 39.3875 40.2308 38.3334V33.9634C40.8102 33.6289 41.2919 33.1486 41.6282 32.5703C41.9644 31.9919 42.1434 31.3357 42.1475 30.6667V21.0834C42.1475 19.4925 41.17 18.1317 39.79 17.5567H39.8091ZM36.4166 25.875C36.4166 27.4659 35.1325 28.75 33.5416 28.75C31.9508 28.75 30.6666 27.4659 30.6666 25.875C30.6666 24.2842 31.9508 23 33.5416 23C35.1325 23 36.4166 24.2842 36.4166 25.875ZM15.3333 25.875C15.3333 27.4659 14.0491 28.75 12.4583 28.75C10.8675 28.75 9.58331 27.4659 9.58331 25.875C9.58331 24.2842 10.8675 23 12.4583 23C14.0491 23 15.3333 24.2842 15.3333 25.875ZM14.26 9.58337H31.74C32.1418 9.58234 32.5338 9.70761 32.8605 9.94149C33.1873 10.1754 33.4322 10.506 33.5608 10.8867L35.6883 17.25H10.3308L12.4583 10.8867C12.5869 10.506 12.8319 10.1754 13.1586 9.94149C13.4853 9.70761 13.8773 9.58234 14.2791 9.58337H14.26Z" fill="#FE7906"/>
</svg>
