<svg width="46" height="46" viewBox="0 0 46 46" fill="none" xmlns="http://www.w3.org/2000/svg">
<path d="M23.69 36.4167C23.657 36.3687 23.6394 36.3119 23.6394 36.2538C23.6394 36.1956 23.657 36.1388 23.69 36.0908C23.716 36.0373 23.757 35.9924 23.8081 35.9618C23.8591 35.9312 23.918 35.9161 23.9775 35.9183C24.4858 35.9183 24.9733 35.7164 25.3328 35.357C25.6922 34.9975 25.8942 34.51 25.8942 34.0017C25.8942 33.4933 25.6922 33.0058 25.3328 32.6464C24.9733 32.2869 24.4858 32.085 23.9775 32.085H4.79167C4.5375 32.085 4.29375 31.984 4.11402 31.8043C3.9343 31.6246 3.83333 31.3808 3.83333 31.1267V9.10417C3.83333 8.85 3.9343 8.60625 4.11402 8.42652C4.29375 8.2468 4.5375 8.14583 4.79167 8.14583H36.4167C36.6708 8.14583 36.9146 8.2468 37.0943 8.42652C37.274 8.60625 37.375 8.85 37.375 9.10417V10.0625C37.375 10.5708 37.5769 11.0583 37.9364 11.4178C38.2958 11.7772 38.7833 11.9792 39.2917 11.9792C39.8 11.9792 40.2875 11.7772 40.647 11.4178C41.0064 11.0583 41.2083 10.5708 41.2083 10.0625V8.14583C41.2083 7.12917 40.8045 6.15415 40.0856 5.43526C39.3667 4.71637 38.3917 4.3125 37.375 4.3125H3.83333C2.81667 4.3125 1.84165 4.71637 1.12276 5.43526C0.403868 6.15415 0 7.12917 0 8.14583L0 32.1042C0 33.1208 0.403868 34.0959 1.12276 34.8147C1.84165 35.5336 2.81667 35.9375 3.83333 35.9375H16.0042C16.0904 35.9373 16.175 35.9603 16.2492 36.0041C16.3235 36.048 16.3845 36.111 16.4258 36.1867C16.4678 36.263 16.4898 36.3487 16.4898 36.4358C16.4898 36.5229 16.4678 36.6086 16.4258 36.685L14.0492 40.25C13.9512 40.3949 13.8948 40.5639 13.886 40.7386C13.8772 40.9133 13.9164 41.0871 13.9993 41.2411C14.0822 41.3951 14.2057 41.5235 14.3564 41.6123C14.5071 41.7011 14.6793 41.747 14.8542 41.745H25.3958C25.5707 41.747 25.7429 41.7011 25.8936 41.6123C26.0443 41.5235 26.1678 41.3951 26.2507 41.2411C26.3336 41.0871 26.3728 40.9133 26.364 40.7386C26.3552 40.5639 26.2988 40.3949 26.2008 40.25L23.69 36.4167Z" fill="#FE7906"/>
<path d="M44.0833 14.8541H30.6667C30.1583 14.8541 29.6708 15.0561 29.3114 15.4155C28.9519 15.7749 28.75 16.2625 28.75 16.7708V39.7708C28.75 40.2791 28.9519 40.7666 29.3114 41.1261C29.6708 41.4855 30.1583 41.6875 30.6667 41.6875H44.0833C44.5917 41.6875 45.0792 41.4855 45.4386 41.1261C45.7981 40.7666 46 40.2791 46 39.7708V16.7708C46 16.2625 45.7981 15.7749 45.4386 15.4155C45.0792 15.0561 44.5917 14.8541 44.0833 14.8541ZM42.1667 21.0833H38.3333C37.9521 21.0833 37.5864 20.9318 37.3169 20.6623C37.0473 20.3927 36.8958 20.027 36.8958 19.6458C36.8958 19.2645 37.0473 18.8989 37.3169 18.6293C37.5864 18.3597 37.9521 18.2083 38.3333 18.2083H42.1667C42.5479 18.2083 42.9136 18.3597 43.1831 18.6293C43.4527 18.8989 43.6042 19.2645 43.6042 19.6458C43.6042 20.027 43.4527 20.3927 43.1831 20.6623C42.9136 20.9318 42.5479 21.0833 42.1667 21.0833ZM42.6458 35.9375C42.6409 36.3172 42.4878 36.6799 42.2193 36.9484C41.9508 37.217 41.588 37.37 41.2083 37.375H33.5417C33.1604 37.375 32.7948 37.2235 32.5252 36.9539C32.2556 36.6843 32.1042 36.3187 32.1042 35.9375C32.1042 35.5562 32.2556 35.1906 32.5252 34.921C32.7948 34.6514 33.1604 34.5 33.5417 34.5H41.2083C41.588 34.5049 41.9508 34.658 42.2193 34.9265C42.4878 35.195 42.6409 35.5578 42.6458 35.9375Z" fill="#FE7906"/>
</svg>
