<svg width="46" height="46" viewBox="0 0 46 46" fill="none" xmlns="http://www.w3.org/2000/svg">
<path d="M23 6.86656C22.4548 6.86652 21.9231 7.06118 21.478 7.42372C21.0329 7.78626 20.6964 8.29883 20.5149 8.89082C20.3901 9.25746 20.1464 9.55387 19.8353 9.71741C19.5242 9.88094 19.1701 9.89879 18.8478 9.76719C18.5255 9.63558 18.2602 9.36483 18.1081 9.01215C17.9559 8.65946 17.9288 8.25247 18.0324 7.87717C18.2928 7.03013 18.7133 6.26025 19.2635 5.6231C19.8137 4.98596 20.4799 4.49744 21.214 4.19281C21.9481 3.88819 22.7317 3.77505 23.5084 3.86158C24.285 3.94811 25.0353 4.23214 25.705 4.69317C26.3748 5.1542 26.9473 5.78072 27.3812 6.52752C27.8152 7.27431 28.0997 8.12275 28.2143 9.01157C28.3289 9.90039 28.2707 10.8074 28.044 11.6672C27.8172 12.527 27.4275 13.3181 26.9029 13.9833C26.6517 14.2989 26.4136 14.5903 26.1888 14.8574C25.775 15.3551 25.3982 15.8042 25.0503 16.3262C24.5443 17.0849 24.3203 17.6919 24.3203 18.2473C24.3202 18.6599 24.4175 19.0649 24.6017 19.4187C24.786 19.7726 25.0504 20.0622 25.3665 20.2564L41.6424 30.2532C42.5498 30.8107 43.2694 31.7016 43.6867 32.7842C44.104 33.8667 44.1951 35.0788 43.9455 36.2279C43.6959 37.3769 43.1199 38.3969 42.3092 39.1257C41.4984 39.8545 40.4994 40.2502 39.4708 40.25H6.52917C5.50066 40.2502 4.50162 39.8545 3.69085 39.1257C2.88008 38.3969 2.30412 37.3769 2.05453 36.2279C1.80494 35.0788 1.89604 33.8667 2.31334 32.7842C2.73065 31.7016 3.45021 30.8107 4.35765 30.2532L18.4277 21.613C18.5808 21.5111 18.7502 21.4457 18.9257 21.4208C19.1012 21.3959 19.2793 21.4119 19.4493 21.468C19.6193 21.524 19.7778 21.6188 19.9153 21.7469C20.0529 21.8749 20.1666 22.0335 20.2497 22.2132C20.3329 22.393 20.3838 22.5901 20.3994 22.793C20.415 22.9959 20.395 23.2003 20.3406 23.394C20.2861 23.5878 20.1984 23.7669 20.0825 23.9208C19.9667 24.0747 19.8251 24.2002 19.6663 24.2897L5.5989 32.93C5.20963 33.1687 4.90086 33.5504 4.72173 34.0145C4.5426 34.4786 4.5034 34.9984 4.61036 35.4911C4.71732 35.9838 4.9643 36.4212 5.31201 36.7336C5.65971 37.046 6.08815 37.2155 6.52917 37.2152H39.4708C39.9119 37.2155 40.3403 37.046 40.688 36.7336C41.0357 36.4212 41.2827 35.9838 41.3896 35.4911C41.4966 34.9984 41.4574 34.4786 41.2783 34.0145C41.0991 33.5504 40.7904 33.1687 40.4011 32.93L24.1253 22.9331C23.388 22.48 22.7716 21.8047 22.3417 20.9793C21.9119 20.154 21.6849 19.2097 21.685 18.2473C21.685 16.7086 22.3095 15.4492 22.9605 14.475C23.3953 13.8255 23.9487 13.1609 24.4178 12.5933C24.6181 12.3566 24.7964 12.1391 24.9528 11.9409C25.2958 11.5055 25.5217 10.9649 25.6029 10.3845C25.6842 9.80421 25.6173 9.20919 25.4105 8.67178C25.2037 8.13436 24.8658 7.67768 24.4379 7.35722C24.01 7.03675 23.5104 6.8663 23 6.86656Z" fill="#FE7906"/>
</svg>
