<svg width="46" height="46" viewBox="0 0 46 46" fill="none" xmlns="http://www.w3.org/2000/svg">
<path d="M43.125 19.0774V12.9375C43.125 12.175 42.8221 11.4437 42.2829 10.9046C41.7438 10.3654 41.0125 10.0625 40.25 10.0625H5.75C4.9875 10.0625 4.25623 10.3654 3.71707 10.9046C3.1779 11.4437 2.875 12.175 2.875 12.9375V19.0774C2.43864 19.3294 2.07615 19.6915 1.82386 20.1277C1.57157 20.5638 1.43833 21.0586 1.4375 21.5625V30.1875C1.4375 30.95 1.7404 31.6813 2.27957 32.2204C2.81874 32.7596 3.55 33.0625 4.3125 33.0625H5.75V35.9375C5.75 36.3187 5.90145 36.6844 6.17103 36.954C6.44062 37.2236 6.80625 37.375 7.1875 37.375C7.56875 37.375 7.93438 37.2236 8.20397 36.954C8.47355 36.6844 8.625 36.3187 8.625 35.9375V33.0625H37.375V35.9375C37.375 36.3187 37.5265 36.6844 37.796 36.954C38.0656 37.2236 38.4313 37.375 38.8125 37.375C39.1937 37.375 39.5594 37.2236 39.829 36.954C40.0985 36.6844 40.25 36.3187 40.25 35.9375V33.0625H41.6875C42.45 33.0625 43.1813 32.7596 43.7204 32.2204C44.2596 31.6813 44.5625 30.95 44.5625 30.1875V21.5625C44.5617 21.0586 44.4284 20.5638 44.1761 20.1277C43.9238 19.6915 43.5614 19.3294 43.125 19.0774ZM40.25 18.6875H38.8125C38.05 18.6875 37.3187 18.9904 36.7796 19.5296C36.2404 20.0687 35.9375 20.8 35.9375 21.5625V24.4375H24.4375V12.9375H40.25V18.6875ZM21.5625 12.9375V24.4375H10.0625V21.5625C10.0625 20.8 9.7596 20.0687 9.22043 19.5296C8.68126 18.9904 7.95 18.6875 7.1875 18.6875H5.75V12.9375H21.5625ZM41.6875 30.1875H4.3125V21.5625H7.1875V25.875C7.1875 26.2562 7.33895 26.6219 7.60853 26.8915C7.87812 27.1611 8.24375 27.3125 8.625 27.3125H37.375C37.7562 27.3125 38.1219 27.1611 38.3915 26.8915C38.661 26.6219 38.8125 26.2562 38.8125 25.875V21.5625H41.6875V30.1875Z" fill="#FE7906"/>
</svg>
