<svg width="25" height="25" viewBox="0 0 25 25" fill="none" xmlns="http://www.w3.org/2000/svg">
<path d="M11.8333 18.5H13.1667V13.1667H18.5V11.8333H13.1667V6.5H11.8333V11.8333H6.5V13.1667H11.8333V18.5ZM12.504 24.5C10.8444 24.5 9.28444 24.1853 7.824 23.556C6.36356 22.9258 5.09289 22.0707 4.012 20.9907C2.93111 19.9107 2.07556 18.6413 1.44533 17.1827C0.815111 15.724 0.5 14.1644 0.5 12.504C0.5 10.8436 0.815111 9.28355 1.44533 7.824C2.07467 6.36355 2.92844 5.09289 4.00667 4.012C5.08489 2.93111 6.35467 2.07556 7.816 1.44533C9.27733 0.815111 10.8373 0.5 12.496 0.5C14.1547 0.5 15.7147 0.815111 17.176 1.44533C18.6364 2.07467 19.9071 2.92889 20.988 4.008C22.0689 5.08711 22.9244 6.35689 23.5547 7.81733C24.1849 9.27778 24.5 10.8373 24.5 12.496C24.5 14.1547 24.1853 15.7147 23.556 17.176C22.9267 18.6373 22.0716 19.908 20.9907 20.988C19.9098 22.068 18.6404 22.9236 17.1827 23.5547C15.7249 24.1858 14.1653 24.5009 12.504 24.5ZM12.5 23.1667C15.4778 23.1667 18 22.1333 20.0667 20.0667C22.1333 18 23.1667 15.4778 23.1667 12.5C23.1667 9.52222 22.1333 7 20.0667 4.93333C18 2.86667 15.4778 1.83333 12.5 1.83333C9.52222 1.83333 7 2.86667 4.93333 4.93333C2.86667 7 1.83333 9.52222 1.83333 12.5C1.83333 15.4778 2.86667 18 4.93333 20.0667C7 22.1333 9.52222 23.1667 12.5 23.1667Z" fill="#767676"/>
</svg>
