<svg width="59" height="84" viewBox="0 0 59 84" fill="none" xmlns="http://www.w3.org/2000/svg">
<path d="M45.6103 18.4965C44.1527 15.4154 42.0418 13.0414 39.2776 11.3746C36.5134 9.65728 33.2967 8.79858 29.6278 8.79858C25.9589 8.79858 22.6418 9.65728 19.6765 11.3746C16.7615 13.0414 14.4495 15.4659 12.7407 18.648C11.0821 21.7796 10.2529 25.4163 10.2529 29.5581C10.2529 33.6999 11.0821 37.3366 12.7407 40.4682C14.4495 43.5999 16.7615 46.0243 19.6765 47.7416C22.6418 49.4085 25.9589 50.2419 29.6278 50.2419C34.7543 50.2419 38.976 48.7013 42.2931 45.6202C45.6103 42.5392 47.5452 38.3721 48.0981 33.119H27.14V27.5125H55.4108V32.816C55.0087 37.1599 53.6517 41.1501 51.3398 44.7868C49.0279 48.373 45.9872 51.2268 42.2178 53.3482C38.4483 55.4192 34.2517 56.4546 29.6278 56.4546C24.7527 56.4546 20.3047 55.3181 16.284 53.0452C12.2632 50.7217 9.0718 47.5143 6.70959 43.423C4.39766 39.3318 3.2417 34.7101 3.2417 29.5581C3.2417 24.4061 4.39766 19.7845 6.70959 15.6932C9.0718 11.5514 12.2632 8.34399 16.284 6.07105C20.3047 3.7476 24.7527 2.58588 29.6278 2.58588C35.2066 2.58588 40.132 3.97489 44.404 6.75293C48.7264 9.53095 51.8675 13.4455 53.8276 18.4965H45.6103Z" fill="#FE7906"/>
<path d="M32.1322 83.6755L32.3143 56.0394L26.4044 56L26.2223 83.6362L32.1322 83.6755Z" fill="#FE7906"/>
</svg>
