<svg width="46" height="46" viewBox="0 0 46 46" fill="none" xmlns="http://www.w3.org/2000/svg">
<path d="M35.9375 25.875H22.1554L22.5777 25.4527L26.1822 21.8482C27.6381 22.5814 29.2421 22.9722 30.8721 22.991C32.5127 22.9953 34.1226 22.5464 35.5242 21.6937C39.7864 19.1133 42.0702 13.1405 41.6336 5.71584C41.613 5.36417 41.4641 5.03228 41.215 4.78318C40.9659 4.53409 40.634 4.38513 40.2823 4.36459C32.8576 3.92975 26.8848 6.21178 24.3045 10.474C22.6226 13.2501 22.5795 16.6031 24.1482 19.8177L21.5625 22.4034L19.3685 20.2094C20.4466 17.8286 20.3693 15.3579 19.1187 13.2951C17.1655 10.0625 12.6877 8.33928 7.13894 8.66452C6.78788 8.68543 6.45666 8.83432 6.20798 9.083C5.9593 9.33169 5.81041 9.6629 5.78949 10.014C5.46246 15.5609 7.18746 20.0387 10.4218 21.9937C11.5038 22.6546 12.7477 23.0029 14.0156 23C15.1658 22.9886 16.3003 22.7319 17.3434 22.2471L19.5284 24.4375L18.0909 25.875H10.0625C9.68121 25.875 9.31558 26.0264 9.04599 26.296C8.77641 26.5656 8.62496 26.9312 8.62496 27.3125C8.62496 27.6937 8.77641 28.0594 9.04599 28.329C9.31558 28.5985 9.68121 28.75 10.0625 28.75H11.7857L14.1593 39.436C14.2985 40.076 14.6532 40.6489 15.1641 41.0587C15.675 41.4685 16.3111 41.6905 16.9661 41.6875H29.0357C29.6906 41.6905 30.3268 41.4685 30.8377 41.0587C31.3486 40.6489 31.7032 40.076 31.8424 39.436L34.2161 28.75H35.9375C36.3187 28.75 36.6843 28.5985 36.9539 28.329C37.2235 28.0594 37.375 27.6937 37.375 27.3125C37.375 26.9312 37.2235 26.5656 36.9539 26.296C36.6843 26.0264 36.3187 25.875 35.9375 25.875ZM26.7734 11.9636C28.6529 8.86217 33.1056 7.11202 38.8125 7.18928C38.8861 12.9051 37.1396 17.356 34.0382 19.2283C31.97 20.4862 29.4741 20.4035 26.98 19.0163C25.5911 16.5312 25.5156 14.0318 26.7734 11.9636ZM16.551 19.426C14.8979 20.3119 13.2609 20.3532 11.9096 19.5338C9.84324 18.2814 8.65191 15.3291 8.62496 11.5C12.4541 11.5269 15.4082 12.7183 16.6588 14.7847C17.4782 16.1359 17.4296 17.7729 16.551 19.426ZM29.0357 38.8125H16.9661L14.7343 28.75H31.2656L29.0357 38.8125Z" fill="#FE7906"/>
</svg>
