<svg width="46" height="46" viewBox="0 0 46 46" fill="none" xmlns="http://www.w3.org/2000/svg">
<path d="M23 21.3739L25.4909 18.883C24.4812 17.6042 23.6854 16.0172 23.0483 14.3658C22.2548 12.3027 21.6821 10.0487 21.2681 7.97866L21.0841 7.01266C17.8913 7.3916 14.8862 8.72186 12.4591 10.8307L23 21.3739ZM27.117 20.5091L24.6261 23L35.1693 33.5432C37.2781 31.1161 38.6084 28.111 38.9873 24.9182L38.0259 24.7365C35.9559 24.3225 33.7019 23.7475 31.6388 22.954C29.9851 22.3192 28.3958 21.5211 27.117 20.5091ZM39.0954 22.6021C39.0067 18.8672 37.6183 15.2803 35.1693 12.4591L28.7569 18.8692C29.7459 19.6052 31.0178 20.2515 32.4645 20.8081C34.3643 21.5395 36.4826 22.0823 38.4767 22.4825L39.0954 22.6021ZM27.1308 17.2431L33.5432 10.8307C30.722 8.38165 27.135 6.99322 23.4002 6.90456L23.5221 7.52556C23.9223 9.52196 24.4651 11.6403 25.1965 13.5401C25.7508 14.9845 26.3948 16.2541 27.1308 17.2431ZM23 24.6238L20.5137 27.1101C21.5257 28.3889 22.3215 29.9782 22.9586 31.6319C23.7521 33.695 24.3271 35.949 24.7411 38.019C24.8055 38.3456 24.8668 38.6676 24.9251 38.985C28.1155 38.6047 31.118 37.2745 33.5432 35.167L23 24.6238ZM18.8738 28.75L12.4568 35.167C15.2792 37.617 18.868 39.0055 22.6044 39.0931L22.4848 38.4698C22.0846 36.4734 21.5418 34.3574 20.8104 32.4576C20.2561 31.0109 19.6098 29.7413 18.8738 28.7523M17.2454 27.1285C16.2564 26.3925 14.9868 25.7485 13.5424 25.1919C11.6426 24.4605 9.52429 23.9154 7.53019 23.5175L6.90459 23.3956C6.99219 27.132 8.38069 30.7208 10.8307 33.5432L17.2454 27.1285ZM18.8853 25.4863L21.3739 23L10.8307 12.4568C8.72273 14.8826 7.39252 17.886 7.01269 21.0772C7.33163 21.1354 7.65439 21.1968 7.98099 21.2612C10.051 21.6752 12.305 22.2502 14.3681 23.0437C16.0195 23.6785 17.6088 24.4766 18.8853 25.4863ZM36.0111 36.0111C34.3025 37.7197 32.274 39.0751 30.0415 39.9998C27.8091 40.9245 25.4164 41.4004 23 41.4004C20.5836 41.4004 18.1909 40.9245 15.9584 39.9998C13.726 39.0751 11.6975 37.7197 9.98889 36.0111C8.28025 34.3024 6.92488 32.274 6.00017 30.0415C5.07546 27.8091 4.59952 25.4163 4.59952 23C4.59952 20.5836 5.07546 18.1909 6.00017 15.9584C6.92488 13.726 8.28025 11.6975 9.98889 9.98886C13.4397 6.5381 18.1199 4.59949 23 4.59949C27.8801 4.59949 32.5603 6.5381 36.0111 9.98886C39.4619 13.4396 41.4005 18.1199 41.4005 23C41.4005 27.8801 39.4619 32.5603 36.0111 36.0111Z" fill="#FE7906"/>
</svg>
